<svg xmlns="http://www.w3.org/2000/svg" width="540" height="544" stroke="#000" stroke-linecap="round" stroke-linejoin="round" fill="#fff" fill-rule="evenodd"><path d="M74.6865 169.958c28.1582 10.7628 57.8666 15.9464 87.707 15.3002 29.8405.6393 59.5491-4.5447 87.707-15.3078 21.9786-9.3264 29.7745-19.6804 29.7745-25.6466V98.725c-7.6834 5.5934-15.9303 10.2243-24.5726 13.793-29.7933 11.6026-61.2686 17.2603-92.9089 16.6935-31.6399.5528-63.1066-5.091-92.9089-16.665-8.6469-3.5687-16.894-8.207-24.5726-13.8215v45.5142c0 6.0811 7.8194 16.3848 29.7745 25.7188zm0 85.9696c9.9484 4.1282 20.2066 7.3023 30.658 9.4993 18.797 3.956 37.9043 5.9017 57.049 5.8086 19.1447.1001 38.2519-1.8454 57.049-5.7944 10.4514-2.1971 20.7098-5.3776 30.658-9.4992 21.9786-9.3198 29.7745-19.6804 29.7745-25.64v-43.4675c-6.3533 4.1571-13.0265 7.6968-19.9529 10.5762-31.2972 12.0482-64.333 17.8852-97.5286 17.2178-33.2002.6459-66.236-5.2126-97.5286-17.2823-6.9218-2.8867-13.5994-6.4263-19.9529-10.5763v43.5036c0 5.9738 7.8194 16.2984 29.7745 25.6542zm87.707 103.0748c64.8545 0 117.4815-22.3653 117.4815-49.9295V272.699c-5.78 3.7908-11.8326 7.0577-18.1014 9.7718l-1.8515.8045c-31.2923 12.0839-64.3281 17.9568-97.5286 17.325-33.2048.6464-66.241-5.2198-97.5286-17.325-.6387-.2517-1.2499-.5528-1.8515-.8045-6.2688-2.7141-12.3214-5.981-18.1014-9.7718v36.3739c0 27.5642 52.627 49.9295 117.4815 49.9295zM44.912 49.9295C44.912 22.2653 97.3088 0 162.3935 0S279.875 22.2653 279.875 49.9295c0 27.6575-52.3968 49.9228-117.4815 49.9228S44.912 77.587 44.912 49.9295z" stroke="none" fill="#ffda44" fill-rule="nonzero"/><path d="M70.6247 423.7983h14.1249c8.4756 0 14.1248 6.6775 14.1248 13.3559h14.1252c0-14.6918-12.7115-26.7119-28.25-26.7119H70.6247c-15.5373 0-28.2497 12.0201-28.2497 26.7119s12.7124 26.7108 28.2497 26.7108h14.1249c8.4756 0 14.1248 5.3428 14.1248 13.3558s-5.6492 13.356-14.1248 13.356H70.6247c-8.4746 0-14.1249-6.6775-14.1249-13.356h0H42.375h0c0 14.6916 12.7124 26.712 28.2497 26.712h14.1249c15.5385 0 28.25-12.0204 28.25-26.712s-12.7115-26.7111-28.25-26.7111H70.6247c-8.4746 0-14.1249-5.3424-14.1249-13.3555s5.6503-13.3559 14.1249-13.3559zm132.1249 53.4225v-40.0666c0-14.6918-12.7125-26.7119-28.25-26.7119h-14.1249c-15.5373 0-28.2497 12.0201-28.2497 26.7119v40.0666c0 14.6916 12.7124 26.712 28.2497 26.712h14.1249c2.8253 0 7.0619 0 9.888-1.3356L197.1 514.6173l9.8875-9.3497-11.3002-10.6847c4.2373-4.0061 7.0623-10.6836 7.0623-17.3621zm-14.1252 0c0 2.6715-1.411 5.343-2.8247 8.0139l-19.774-18.6974-9.8883 9.3495 15.5375 14.691h-11.3002c-8.4746 0-14.1249-5.3429-14.1249-13.356v-40.0676c0-8.0142 5.6503-13.3559 14.1249-13.3559h14.1249c8.4756 0 14.1248 5.3417 14.1248 13.3559v40.0666zm93.876-106.8458H42.3746C18.3622 370.375 0 387.737 0 410.4424v93.4902C0 526.638 18.3622 544 42.3746 544h240.1258c24.0123 0 42.3746-17.362 42.3746-40.0674v-93.4902c0-22.7054-18.3623-40.0674-42.3746-40.0674zm28.2498 133.5576c0 14.6914-12.7131 26.7114-28.2498 26.7114H42.3746c-15.5368 0-28.2498-12.02-28.2498-26.7114v-93.4902c0-14.6921 12.713-26.7114 28.2498-26.7114h240.1258c15.5367 0 28.2498 12.0193 28.2498 26.7114v93.4902zm-69.7504-93.49H226.875v93.4905h70.6246v-13.356h-56.4998z" fill="#000" stroke="none" fill-rule="nonzero"/></svg>